<svg data-v-423bf9ae="" xmlns="http://www.w3.org/2000/svg" viewBox="0 0 448 90" class="iconLeft"><!----><!----><!----><g data-v-423bf9ae="" id="e530593e-8a58-41b2-bc51-c6073cd494a9" fill="#4b3c5e" transform="matrix(3.764115571975708,0,0,3.764115571975708,110.45170593261719,6.342535018920898)"><path d="M3.45 5.17L-0.12 5.17L-0.12 5.17Q1.01 4.25 1.20 4.25L1.20 4.25L8.91 4.25L8.91 4.25Q8.83 4.26 8.50 4.55L8.50 4.55L8.50 4.55Q8.17 4.83 8.04 4.94L8.04 4.94L8.04 4.94Q7.72 5.17 7.59 5.17L7.59 5.17L4.79 5.17L4.79 11.43L4.79 11.43Q4.79 12.26 4.50 12.80L4.50 12.80L4.50 12.80Q4.38 13.03 4.23 13.15L4.23 13.15L6.49 13.15L6.49 13.15Q6.39 13.17 6.06 13.45L6.06 13.45L6.06 13.45Q5.74 13.74 5.61 13.84L5.61 13.84L5.61 13.84Q5.29 14.08 5.15 14.08L5.15 14.08L2.78 14.08L2.78 14.08Q3.19 13.71 3.29 13.46L3.29 13.46L3.29 13.46Q3.45 13.06 3.45 12.45L3.45 12.45L3.45 5.17ZM10.83 10.53L10.83 12.59L10.83 12.59Q10.83 13.28 11.23 13.28L11.23 13.28L11.23 13.28Q11.37 13.28 11.65 13.16L11.65 13.16L11.65 13.16Q11.38 13.75 10.85 14.05L10.85 14.05L10.85 14.05Q10.58 14.21 10.27 14.19L10.27 14.19L10.27 14.19Q9.96 14.18 9.83 14.03L9.83 14.03L9.83 14.03Q9.69 13.88 9.62 13.67L9.62 13.67L9.62 13.67Q9.51 13.33 9.51 12.80L9.51 12.80L9.51 5.00L9.51 5.00Q9.51 4.27 9.26 4.03L9.26 4.03L9.26 4.03Q9.14 3.92 8.96 3.92L8.96 3.92L8.96 3.92Q8.67 3.92 8.32 4.02L8.32 4.02L8.32 4.02Q9.15 3.36 10.83 2.30L10.83 2.30L10.83 8.57L10.83 8.57Q11.69 7.82 12.58 7.55L12.58 7.55L12.58 7.55Q12.91 7.44 13.22 7.44L13.22 7.44L13.22 7.44Q13.53 7.44 13.81 7.54L13.81 7.54L13.81 7.54Q14.08 7.64 14.30 7.82L14.30 7.82L14.30 7.82Q14.79 8.22 14.79 8.83L14.79 8.83L14.79 12.30L14.79 12.30Q14.79 13.21 15.22 13.30L15.22 13.30L15.22 13.30Q15.35 13.33 15.48 13.33L15.48 13.33L15.48 13.33Q15.70 13.33 16.08 13.16L16.08 13.16L16.08 13.16Q15.51 13.88 14.76 14.11L14.76 14.11L14.76 14.11Q14.50 14.19 14.20 14.19L14.20 14.19L14.20 14.19Q13.90 14.19 13.74 14.05L13.74 14.05L13.74 14.05Q13.58 13.90 13.51 13.69L13.51 13.69L13.51 13.69Q13.45 13.47 13.45 13.21L13.45 13.21L13.45 10.14L13.45 10.14Q13.45 9.10 13.13 8.74L13.13 8.74L13.13 8.74Q12.84 8.39 12.04 8.39L12.04 8.39L12.04 8.39Q10.99 8.39 10.86 9.84L10.86 9.84L10.86 9.84Q10.83 10.21 10.83 10.53L10.83 10.53ZM21.76 12.82L21.76 12.82L21.76 12.82Q20.82 13.86 19.43 14.12L19.43 14.12L19.43 14.12Q19.11 14.18 18.64 14.18L18.64 14.18L18.64 14.18Q18.17 14.18 17.75 13.91L17.75 13.91L17.75 13.91Q17.34 13.65 17.07 13.23L17.07 13.23L17.07 13.23Q16.56 12.43 16.56 11.27L16.56 11.27L16.56 11.27Q16.56 10.50 17.15 9.57L17.15 9.57L17.15 9.57Q17.73 8.65 18.55 8.04L18.55 8.04L18.55 8.04Q19.44 7.38 20.23 7.38L20.23 7.38L20.23 7.38Q20.64 7.38 20.92 7.68L20.92 7.68L20.92 7.68Q21.18 7.98 21.18 8.35L21.18 8.35L21.18 8.35Q21.18 8.73 21.02 9.05L21.02 9.05L21.02 9.05Q20.86 9.37 20.59 9.67L20.59 9.67L20.59 9.67Q20.33 9.97 19.99 10.24L19.99 10.24L19.99 10.24Q19.65 10.52 19.30 10.76L19.30 10.76L19.30 10.76Q18.80 11.10 18.04 11.53L18.04 11.53L18.04 11.53Q18.26 12.36 18.81 12.81L18.81 12.81L18.81 12.81Q19.37 13.25 20.24 13.25L20.24 13.25L20.24 13.25Q20.98 13.25 21.76 12.82ZM19.69 10.08L19.69 10.08L19.69 10.08Q19.88 9.78 19.88 9.50L19.88 9.50L19.88 9.50Q19.88 9.22 19.82 9.03L19.82 9.03L19.82 9.03Q19.76 8.83 19.64 8.68L19.64 8.68L19.64 8.68Q19.37 8.34 18.95 8.34L18.95 8.34L18.95 8.34Q17.91 8.34 17.91 10.46L17.91 10.46L17.91 10.46Q17.91 10.83 17.97 11.20L17.97 11.20L17.97 11.20Q19.17 10.87 19.69 10.08ZM35.42 8.72L35.42 8.72L35.42 8.72Q35.42 9.56 35.15 10.31L35.15 10.31L35.15 10.31Q34.88 11.05 34.41 11.66L34.41 11.66L34.41 11.66Q33.94 12.26 33.30 12.71L33.30 12.71L33.30 12.71Q32.67 13.17 31.94 13.47L31.94 13.47L31.94 13.47Q30.47 14.08 28.84 14.08L28.84 14.08L26.64 14.08L26.64 14.08Q27.16 13.54 27.16 12.13L27.16 12.13L27.16 5.17L25.66 5.17L25.66 5.17Q25.76 5.15 26.12 4.83L26.12 4.83L26.12 4.83Q26.80 4.25 26.98 4.25L26.98 4.25L30.02 4.24L30.02 4.24Q32.29 4.24 33.76 5.26L33.76 5.26L33.76 5.26Q35.42 6.42 35.42 8.72ZM33.86 11.26L33.86 11.26L33.86 11.26Q34.10 10.60 34.10 9.71L34.10 9.71L34.10 9.71Q34.10 8.82 33.92 8.14L33.92 8.14L33.92 8.14Q33.74 7.46 33.39 6.96L33.39 6.96L33.39 6.96Q33.05 6.46 32.56 6.12L32.56 6.12L32.56 6.12Q32.07 5.78 31.45 5.56L31.45 5.56L31.45 5.56Q30.27 5.17 28.49 5.17L28.49 5.17L28.49 11.76L28.49 11.76Q28.49 12.46 28.28 12.82L28.28 12.82L28.28 12.82Q28.19 12.97 28.05 13.17L28.05 13.17L30.32 13.17L30.32 13.17Q33.17 13.17 33.86 11.26ZM37.28 3.41L38.61 2.48L38.65 3.26L38.65 3.62L38.65 3.62Q38.65 3.94 38.57 4.02L38.57 4.02L38.57 4.02Q38.49 4.09 38.39 4.16L38.39 4.16L38.39 4.16Q38.01 4.43 37.28 4.89L37.28 4.89L37.28 4.89Q37.32 4.21 37.32 4.19L37.32 4.19L37.32 4.19Q37.32 4.16 37.28 3.41L37.28 3.41ZM40.04 13.24L40.04 13.24L40.04 13.24Q39.83 13.41 39.64 13.58L39.64 13.58L39.64 13.58Q39.44 13.75 39.23 13.89L39.23 13.89L39.23 13.89Q38.74 14.21 38.29 14.21L38.29 14.21L38.29 14.21Q37.86 14.21 37.69 14.08L37.69 14.08L37.69 14.08Q37.34 13.82 37.34 13.13L37.34 13.13L37.34 9.88L37.34 9.88Q37.34 9.15 37.08 8.93L37.08 8.93L37.08 8.93Q36.96 8.83 36.81 8.83L36.81 8.83L36.81 8.83Q36.67 8.83 36.57 8.84L36.57 8.84L36.57 8.84Q36.47 8.86 36.37 8.88L36.37 8.88L36.37 8.88Q36.26 8.90 36.16 8.92L36.16 8.92L36.16 8.92Q36.50 8.65 36.79 8.44L36.79 8.44L36.79 8.44Q37.09 8.23 37.30 8.09L37.30 8.09L37.30 8.09Q37.52 7.94 37.89 7.68L37.89 7.68L37.89 7.68Q38.27 7.42 38.67 7.21L38.67 7.21L38.67 12.03L38.67 12.03Q38.67 12.73 38.76 12.91L38.76 12.91L38.76 12.91Q38.95 13.29 39.61 13.29L39.61 13.29L39.61 13.29Q39.79 13.29 40.04 13.24ZM41.23 8.16L40.34 8.16L41.23 7.46L41.23 6.49L41.23 6.49Q41.60 6.23 41.75 6.09L41.75 6.09L41.75 6.09Q41.91 5.95 42.02 5.89L42.02 5.89L42.02 5.89Q42.13 5.83 42.25 5.76L42.25 5.76L42.25 5.76Q42.54 5.59 42.56 5.56L42.56 5.56L42.56 7.23L44.75 7.23L44.75 7.23Q44.66 7.23 44.30 7.55L44.30 7.55L44.30 7.55Q43.61 8.16 43.42 8.16L43.42 8.16L42.56 8.16L42.56 11.82L42.56 11.82Q42.56 13.08 43.29 13.28L43.29 13.28L43.29 13.28Q43.50 13.33 43.70 13.33L43.70 13.33L43.70 13.33Q44.01 13.33 44.23 13.24L44.23 13.24L44.23 13.24Q44.45 13.15 44.59 13.07L44.59 13.07L44.59 13.07Q44.17 13.71 43.42 14.04L43.42 14.04L43.42 14.04Q43.03 14.21 42.58 14.21L42.58 14.21L42.58 14.21Q42.14 14.21 41.89 14.05L41.89 14.05L41.89 14.05Q41.64 13.90 41.49 13.64L41.49 13.64L41.49 13.64Q41.23 13.18 41.23 12.41L41.23 12.41L41.23 8.16ZM45.89 8.16L45.00 8.16L45.89 7.46L45.89 6.49L45.89 6.49Q46.26 6.23 46.42 6.09L46.42 6.09L46.42 6.09Q46.57 5.95 46.68 5.89L46.68 5.89L46.68 5.89Q46.79 5.83 46.91 5.76L46.91 5.76L46.91 5.76Q47.20 5.59 47.22 5.56L47.22 5.56L47.22 7.23L49.41 7.23L49.41 7.23Q49.32 7.23 48.96 7.55L48.96 7.55L48.96 7.55Q48.27 8.16 48.08 8.16L48.08 8.16L47.22 8.16L47.22 11.82L47.22 11.82Q47.22 13.08 47.95 13.28L47.95 13.28L47.95 13.28Q48.17 13.33 48.36 13.33L48.36 13.33L48.36 13.33Q48.67 13.33 48.89 13.24L48.89 13.24L48.89 13.24Q49.11 13.15 49.25 13.07L49.25 13.07L49.25 13.07Q48.84 13.71 48.08 14.04L48.08 14.04L48.08 14.04Q47.69 14.21 47.25 14.21L47.25 14.21L47.25 14.21Q46.80 14.21 46.55 14.05L46.55 14.05L46.55 14.05Q46.31 13.90 46.16 13.64L46.16 13.64L46.16 13.64Q45.89 13.18 45.89 12.41L45.89 12.41L45.89 8.16ZM54.76 12.63L54.76 9.21L54.76 9.21Q54.76 8.34 54.26 8.34L54.26 8.34L54.26 8.34Q54.10 8.34 53.95 8.41L53.95 8.41L53.95 8.41Q54.72 7.75 55.05 7.58L55.05 7.58L55.05 7.58Q55.38 7.42 55.60 7.42L55.60 7.42L55.60 7.42Q55.83 7.42 55.96 7.58L55.96 7.58L55.96 7.58Q56.09 7.74 56.09 7.98L56.09 7.98L56.09 12.02L56.09 12.02Q56.09 14.31 54.96 16.15L54.96 16.15L54.96 16.15Q54.17 17.42 52.88 17.96L52.88 17.96L52.88 17.96Q52.23 18.24 51.44 18.24L51.44 18.24L51.44 18.24Q50.76 18.24 50.37 17.94L50.37 17.94L50.37 17.94Q50.23 17.82 50.23 17.69L50.23 17.69L50.23 17.69Q50.23 17.55 50.32 17.44L50.32 17.44L50.32 17.44Q50.41 17.33 50.54 17.22L50.54 17.22L50.54 17.22Q50.68 17.10 50.85 16.99L50.85 16.99L50.85 16.99Q51.02 16.88 51.19 16.79L51.19 16.79L51.19 16.79Q51.60 16.54 51.71 16.44L51.71 16.44L51.71 16.44Q51.54 16.58 51.54 16.74L51.54 16.74L51.54 16.74Q51.54 16.90 51.70 17.01L51.70 17.01L51.70 17.01Q51.86 17.12 52.06 17.19L52.06 17.19L52.06 17.19Q52.46 17.32 52.89 17.32L52.89 17.32L52.89 17.32Q53.31 17.32 53.65 17.10L53.65 17.10L53.65 17.10Q53.98 16.88 54.19 16.51L54.19 16.51L54.19 16.51Q54.40 16.15 54.51 15.69L54.51 15.69L54.51 15.69Q54.63 15.22 54.67 14.75L54.67 14.75L54.67 14.75Q54.73 14.25 54.76 13.04L54.76 13.04L54.76 13.04Q53.23 14.21 52.11 14.21L52.11 14.21L52.11 14.21Q51.33 14.21 50.93 13.70L50.93 13.70L50.93 13.70Q50.58 13.24 50.58 12.44L50.58 12.44L50.58 9.69L50.58 9.69Q50.58 8.31 49.79 8.31L49.79 8.31L49.79 8.31Q49.53 8.31 49.30 8.41L49.30 8.41L49.30 8.41Q50.12 7.68 50.65 7.46L50.65 7.46L50.65 7.46Q50.91 7.37 51.17 7.37L51.17 7.37L51.17 7.37Q51.43 7.37 51.58 7.47L51.58 7.47L51.58 7.47Q51.73 7.57 51.81 7.72L51.81 7.72L51.81 7.72Q51.93 7.98 51.93 8.49L51.93 8.49L51.92 11.32L51.92 11.32Q51.92 12.29 52.27 12.75L52.27 12.75L52.27 12.75Q52.68 13.28 53.60 13.28L53.60 13.28L53.60 13.28Q53.94 13.28 54.25 13.09L54.25 13.09L54.25 13.09Q54.57 12.91 54.76 12.63L54.76 12.63ZM63.99 5.17L60.42 5.17L60.42 5.17Q61.55 4.25 61.74 4.25L61.74 4.25L69.45 4.25L69.45 4.25Q69.36 4.26 69.04 4.55L69.04 4.55L69.04 4.55Q68.71 4.83 68.58 4.94L68.58 4.94L68.58 4.94Q68.26 5.17 68.13 5.17L68.13 5.17L65.32 5.17L65.32 11.43L65.32 11.43Q65.32 12.26 65.04 12.80L65.04 12.80L65.04 12.80Q64.92 13.03 64.77 13.15L64.77 13.15L67.03 13.15L67.03 13.15Q66.93 13.17 66.60 13.45L66.60 13.45L66.60 13.45Q66.27 13.74 66.14 13.84L66.14 13.84L66.14 13.84Q65.83 14.08 65.69 14.08L65.69 14.08L63.31 14.08L63.31 14.08Q63.72 13.71 63.83 13.46L63.83 13.46L63.83 13.46Q63.99 13.06 63.99 12.45L63.99 12.45L63.99 5.17ZM72.52 8.42L72.52 8.42L72.52 8.42Q73.62 7.43 74.14 7.43L74.14 7.43L74.14 7.43Q74.65 7.43 74.65 8.09L74.65 8.09L74.65 12.43L74.65 12.43Q74.65 12.84 74.83 13.04L74.83 13.04L74.83 13.04Q75.02 13.25 75.45 13.25L75.45 13.25L75.45 13.25Q75.75 13.25 76.04 13.14L76.04 13.14L76.04 13.14Q75.81 13.22 75.63 13.40L75.63 13.40L75.63 13.40Q75.45 13.57 75.24 13.75L75.24 13.75L75.24 13.75Q74.73 14.19 74.07 14.19L74.07 14.19L74.07 14.19Q73.45 14.19 73.36 13.49L73.36 13.49L73.36 13.49Q73.34 13.30 73.33 13.09L73.33 13.09L73.33 13.09Q71.84 14.22 70.68 14.22L70.68 14.22L70.68 14.22Q69.90 14.22 69.51 13.54L69.51 13.54L69.51 13.54Q69.15 12.92 69.15 11.85L69.15 11.85L69.15 9.55L69.15 9.55Q69.15 8.96 69.05 8.74L69.05 8.74L69.05 8.74Q68.86 8.32 68.36 8.32L68.36 8.32L68.36 8.32Q68.12 8.32 67.87 8.42L67.87 8.42L67.87 8.42Q68.71 7.68 69.23 7.48L69.23 7.48L69.23 7.48Q69.48 7.38 69.75 7.38L69.75 7.38L69.75 7.38Q70.50 7.38 70.50 8.33L70.50 8.33L70.50 8.33Q70.50 8.33 70.50 8.78L70.50 8.78L70.50 8.78Q70.50 8.78 70.49 11.33L70.49 11.33L70.49 11.33Q70.49 12.31 70.85 12.77L70.85 12.77L70.85 12.77Q71.25 13.29 72.17 13.29L72.17 13.29L72.17 13.29Q72.63 13.29 73.11 12.90L73.11 12.90L73.11 12.90Q73.23 12.80 73.33 12.74L73.33 12.74L73.33 9.13L73.33 9.13Q73.33 8.62 73.08 8.43L73.08 8.43L73.08 8.43Q72.98 8.35 72.83 8.35L72.83 8.35L72.83 8.35Q72.68 8.35 72.52 8.42ZM77.24 13.62L77.24 13.62L77.25 9.22L77.25 9.22Q77.25 8.76 77.12 8.61L77.12 8.61L77.12 8.61Q76.91 8.33 76.54 8.33L76.54 8.33L76.54 8.33Q76.16 8.33 75.87 8.44L75.87 8.44L75.87 8.44Q76.04 8.37 76.33 8.12L76.33 8.12L76.33 8.12Q76.86 7.64 77.08 7.55L77.08 7.55L77.08 7.55Q77.49 7.39 77.80 7.39L77.80 7.39L77.80 7.39Q78.11 7.39 78.26 7.49L78.26 7.49L78.26 7.49Q78.42 7.59 78.48 7.77L78.48 7.77L78.48 7.77Q78.57 7.98 78.57 8.57L78.57 8.57L78.57 8.57Q79.85 7.44 80.96 7.44L80.96 7.44L80.96 7.44Q81.57 7.44 82.02 7.83L82.02 7.83L82.02 7.83Q82.50 8.24 82.50 8.83L82.50 8.83L82.50 12.20L82.50 12.20Q82.50 12.71 82.61 12.90L82.61 12.90L82.61 12.90Q82.81 13.26 83.29 13.26L83.29 13.26L83.29 13.26Q83.56 13.26 83.81 13.16L83.81 13.16L83.81 13.16Q83.20 13.69 82.97 13.84L82.97 13.84L82.97 13.84Q82.43 14.18 82.03 14.18L82.03 14.18L82.03 14.18Q81.63 14.18 81.47 14.04L81.47 14.04L81.47 14.04Q81.30 13.90 81.23 13.68L81.23 13.68L81.23 13.68Q81.16 13.44 81.16 12.70L81.16 12.70L81.16 10.14L81.16 10.14Q81.16 8.92 80.36 8.53L80.36 8.53L80.36 8.53Q80.07 8.39 79.67 8.39L79.67 8.39L79.67 8.39Q78.67 8.39 78.59 9.86L78.59 9.86L78.59 9.86Q78.57 10.23 78.57 10.53L78.57 10.53L78.57 12.64L78.57 12.64Q78.57 13.08 78.84 13.23L78.84 13.23L78.84 13.23Q78.93 13.30 79.08 13.30L79.08 13.30L79.08 13.30Q79.22 13.30 79.38 13.23L79.38 13.23L79.38 13.23Q79.24 13.35 79.04 13.52L79.04 13.52L79.04 13.52Q78.84 13.69 78.62 13.85L78.62 13.85L78.62 13.85Q78.08 14.22 77.76 14.22L77.76 14.22L77.76 14.22Q77.24 14.22 77.24 13.62ZM89.46 12.82L89.46 12.82L89.46 12.82Q88.52 13.86 87.13 14.12L87.13 14.12L87.13 14.12Q86.81 14.18 86.34 14.18L86.34 14.18L86.34 14.18Q85.87 14.18 85.45 13.91L85.45 13.91L85.45 13.91Q85.03 13.65 84.77 13.23L84.77 13.23L84.77 13.23Q84.26 12.43 84.26 11.27L84.26 11.27L84.26 11.27Q84.26 10.50 84.85 9.57L84.85 9.57L84.85 9.57Q85.42 8.65 86.25 8.04L86.25 8.04L86.25 8.04Q87.14 7.38 87.93 7.38L87.93 7.38L87.93 7.38Q88.34 7.38 88.62 7.68L88.62 7.68L88.62 7.68Q88.88 7.98 88.88 8.35L88.88 8.35L88.88 8.35Q88.88 8.73 88.72 9.05L88.72 9.05L88.72 9.05Q88.55 9.37 88.29 9.67L88.29 9.67L88.29 9.67Q88.03 9.97 87.69 10.24L87.69 10.24L87.69 10.24Q87.35 10.52 86.99 10.76L86.99 10.76L86.99 10.76Q86.50 11.10 85.74 11.53L85.74 11.53L85.74 11.53Q85.96 12.36 86.51 12.81L86.51 12.81L86.51 12.81Q87.06 13.25 87.94 13.25L87.94 13.25L87.94 13.25Q88.68 13.25 89.46 12.82ZM87.39 10.08L87.39 10.08L87.39 10.08Q87.58 9.78 87.58 9.50L87.58 9.50L87.58 9.50Q87.58 9.22 87.51 9.03L87.51 9.03L87.51 9.03Q87.45 8.83 87.34 8.68L87.34 8.68L87.34 8.68Q87.07 8.34 86.65 8.34L86.65 8.34L86.65 8.34Q85.61 8.34 85.61 10.46L85.61 10.46L85.61 10.46Q85.61 10.83 85.67 11.20L85.67 11.20L85.67 11.20Q86.87 10.87 87.39 10.08Z"></path></g><defs data-v-423bf9ae=""><linearGradient data-v-423bf9ae="" gradientTransform="rotate(25)" id="d31e2f9b-47b9-4cfc-a65b-e663699e3e45" x1="0%" y1="0%" x2="100%" y2="0%"><stop data-v-423bf9ae="" offset="0%" style="stop-color: rgb(30, 11, 54); stop-opacity: 1;"></stop><stop data-v-423bf9ae="" offset="100%" style="stop-color: rgb(202, 55, 130); stop-opacity: 1;"></stop></linearGradient></defs><g data-v-423bf9ae="" id="f3524eed-e83f-4474-a640-65d00840f838" transform="matrix(3.5999999046325684,0,0,3.5999999046325684,0.0000011920928955078125,0.0000011920928955078125)" stroke="none" fill="url(#d31e2f9b-47b9-4cfc-a65b-e663699e3e45)"><path d="M12.5 0A12.5 12.5 0 0 0 0 12.5 12.5 12.5 0 0 0 12.5 25 12.5 12.5 0 0 0 25 12.5 12.5 12.5 0 0 0 12.5 0zm.508 5.793l3.853 3.853-.707.708-2.146-2.147v9.291c0 1.375-1.125 2.5-2.5 2.5a2.508 2.508 0 0 1-2.5-2.5c0-1.375 1.125-2.5 2.5-2.5.564 0 1.08.197 1.5.516V5.793zm-1.5 10.203c-.835 0-1.5.666-1.5 1.5s.665 1.5 1.5 1.5c.834 0 1.5-.666 1.5-1.5a1.493 1.493 0 0 0-1.5-1.498v-.002z"></path></g><!----></svg>
