<svg data-v-423bf9ae="" xmlns="http://www.w3.org/2000/svg" viewBox="0 0 414 90" class="iconLeft"><!----><!----><!----><g data-v-423bf9ae="" id="0fe64e71-724d-4a19-90da-05b07822995e" fill="#4b3c5e" transform="matrix(6.01202392578125,0,0,6.01202392578125,108.73748779296875,-10.490978240966797)"><path d="M9.97 8.72L9.97 8.72L9.97 8.72Q9.97 9.56 9.70 10.31L9.70 10.31L9.70 10.31Q9.43 11.05 8.96 11.66L8.96 11.66L8.96 11.66Q8.49 12.26 7.85 12.71L7.85 12.71L7.85 12.71Q7.22 13.17 6.49 13.47L6.49 13.47L6.49 13.47Q5.02 14.08 3.39 14.08L3.39 14.08L1.19 14.08L1.19 14.08Q1.71 13.54 1.71 12.13L1.71 12.13L1.71 5.17L0.21 5.17L0.21 5.17Q0.31 5.15 0.67 4.83L0.67 4.83L0.67 4.83Q1.35 4.25 1.53 4.25L1.53 4.25L4.57 4.24L4.57 4.24Q6.84 4.24 8.31 5.26L8.31 5.26L8.31 5.26Q9.97 6.42 9.97 8.72ZM8.41 11.26L8.41 11.26L8.41 11.26Q8.65 10.60 8.65 9.71L8.65 9.71L8.65 9.71Q8.65 8.82 8.47 8.14L8.47 8.14L8.47 8.14Q8.29 7.46 7.94 6.96L7.94 6.96L7.94 6.96Q7.60 6.46 7.11 6.12L7.11 6.12L7.11 6.12Q6.62 5.78 6.00 5.56L6.00 5.56L6.00 5.56Q4.82 5.17 3.04 5.17L3.04 5.17L3.04 11.76L3.04 11.76Q3.04 12.46 2.83 12.82L2.83 12.82L2.83 12.82Q2.74 12.97 2.60 13.17L2.60 13.17L4.87 13.17L4.87 13.17Q7.72 13.17 8.41 11.26ZM16.77 8.18L16.77 8.18L16.77 8.18Q17.12 8.57 17.31 9.08L17.31 9.08L17.31 9.08Q17.51 9.59 17.51 10.10L17.51 10.10L17.51 10.10Q17.51 10.62 17.36 11.10L17.36 11.10L17.36 11.10Q17.21 11.59 16.94 12.04L16.94 12.04L16.94 12.04Q16.67 12.50 16.30 12.89L16.30 12.89L16.30 12.89Q15.93 13.28 15.50 13.58L15.50 13.58L15.50 13.58Q14.57 14.20 13.62 14.20L13.62 14.20L13.62 14.20Q12.50 14.20 11.72 13.33L11.72 13.33L11.72 13.33Q10.96 12.50 10.96 11.38L10.96 11.38L10.96 11.38Q10.96 10.42 11.55 9.45L11.55 9.45L11.55 9.45Q12.41 7.99 13.91 7.48L13.91 7.48L13.91 7.48Q14.39 7.31 14.92 7.31L14.92 7.31L14.92 7.31Q15.46 7.31 15.94 7.54L15.94 7.54L15.94 7.54Q16.42 7.78 16.77 8.18ZM13.54 8.22L13.54 8.22L13.54 8.22Q12.85 8.22 12.54 8.89L12.54 8.89L12.54 8.89Q12.29 9.41 12.29 10.06L12.29 10.06L12.29 10.06Q12.29 10.72 12.47 11.28L12.47 11.28L12.47 11.28Q12.64 11.85 12.98 12.29L12.98 12.29L12.98 12.29Q13.74 13.29 14.94 13.29L14.94 13.29L14.94 13.29Q15.63 13.29 15.95 12.59L15.95 12.59L15.95 12.59Q16.17 12.07 16.17 11.40L16.17 11.40L16.17 11.40Q16.17 10.08 15.44 9.15L15.44 9.15L15.44 9.15Q14.70 8.22 13.54 8.22ZM31.38 8.72L31.38 8.72L31.38 8.72Q31.38 9.56 31.11 10.31L31.11 10.31L31.11 10.31Q30.84 11.05 30.38 11.66L30.38 11.66L30.38 11.66Q29.91 12.26 29.27 12.71L29.27 12.71L29.27 12.71Q28.64 13.17 27.91 13.47L27.91 13.47L27.91 13.47Q26.44 14.08 24.81 14.08L24.81 14.08L22.61 14.08L22.61 14.08Q23.13 13.54 23.13 12.13L23.13 12.13L23.13 5.17L21.62 5.17L21.62 5.17Q21.73 5.15 22.09 4.83L22.09 4.83L22.09 4.83Q22.76 4.25 22.95 4.25L22.95 4.25L25.98 4.24L25.98 4.24Q28.25 4.24 29.72 5.26L29.72 5.26L29.72 5.26Q31.38 6.42 31.38 8.72ZM29.83 11.26L29.83 11.26L29.83 11.26Q30.06 10.60 30.06 9.71L30.06 9.71L30.06 9.71Q30.06 8.82 29.88 8.14L29.88 8.14L29.88 8.14Q29.70 7.46 29.36 6.96L29.36 6.96L29.36 6.96Q29.02 6.46 28.53 6.12L28.53 6.12L28.53 6.12Q28.03 5.78 27.41 5.56L27.41 5.56L27.41 5.56Q26.24 5.17 24.45 5.17L24.45 5.17L24.45 11.76L24.45 11.76Q24.45 12.46 24.25 12.82L24.25 12.82L24.25 12.82Q24.16 12.97 24.01 13.17L24.01 13.17L26.29 13.17L26.29 13.17Q29.14 13.17 29.83 11.26ZM36.61 8.42L36.61 8.42L36.61 8.42Q37.71 7.43 38.23 7.43L38.23 7.43L38.23 7.43Q38.74 7.43 38.74 8.09L38.74 8.09L38.74 12.43L38.74 12.43Q38.74 12.84 38.92 13.04L38.92 13.04L38.92 13.04Q39.11 13.25 39.54 13.25L39.54 13.25L39.54 13.25Q39.84 13.25 40.13 13.14L40.13 13.14L40.13 13.14Q39.90 13.22 39.72 13.40L39.72 13.40L39.72 13.40Q39.54 13.57 39.33 13.75L39.33 13.75L39.33 13.75Q38.82 14.19 38.17 14.19L38.17 14.19L38.17 14.19Q37.54 14.19 37.45 13.49L37.45 13.49L37.45 13.49Q37.43 13.30 37.42 13.09L37.42 13.09L37.42 13.09Q35.93 14.22 34.77 14.22L34.77 14.22L34.77 14.22Q34.00 14.22 33.60 13.54L33.60 13.54L33.60 13.54Q33.24 12.92 33.24 11.85L33.24 11.85L33.24 9.55L33.24 9.55Q33.24 8.96 33.14 8.74L33.14 8.74L33.14 8.74Q32.95 8.32 32.45 8.32L32.45 8.32L32.45 8.32Q32.21 8.32 31.96 8.42L31.96 8.42L31.96 8.42Q32.80 7.68 33.32 7.48L33.32 7.48L33.32 7.48Q33.57 7.38 33.84 7.38L33.84 7.38L33.84 7.38Q34.59 7.38 34.59 8.33L34.59 8.33L34.59 8.33Q34.59 8.33 34.59 8.78L34.59 8.78L34.59 8.78Q34.59 8.78 34.58 11.33L34.58 11.33L34.58 11.33Q34.58 12.31 34.95 12.77L34.95 12.77L34.95 12.77Q35.34 13.29 36.26 13.29L36.26 13.29L36.26 13.29Q36.72 13.29 37.20 12.90L37.20 12.90L37.20 12.90Q37.32 12.80 37.42 12.74L37.42 12.74L37.42 9.13L37.42 9.13Q37.42 8.62 37.17 8.43L37.17 8.43L37.17 8.43Q37.07 8.35 36.92 8.35L36.92 8.35L36.92 8.35Q36.77 8.35 36.61 8.42ZM45.73 12.82L45.73 12.82L45.73 12.82Q44.80 13.86 43.41 14.12L43.41 14.12L43.41 14.12Q43.09 14.18 42.62 14.18L42.62 14.18L42.62 14.18Q42.14 14.18 41.73 13.91L41.73 13.91L41.73 13.91Q41.31 13.65 41.04 13.23L41.04 13.23L41.04 13.23Q40.54 12.43 40.54 11.27L40.54 11.27L40.54 11.27Q40.54 10.50 41.13 9.57L41.13 9.57L41.13 9.57Q41.70 8.65 42.53 8.04L42.53 8.04L42.53 8.04Q43.42 7.38 44.21 7.38L44.21 7.38L44.21 7.38Q44.62 7.38 44.90 7.68L44.90 7.68L44.90 7.68Q45.16 7.98 45.16 8.35L45.16 8.35L45.16 8.35Q45.16 8.73 44.99 9.05L44.99 9.05L44.99 9.05Q44.83 9.37 44.57 9.67L44.57 9.67L44.57 9.67Q44.30 9.97 43.97 10.24L43.97 10.24L43.97 10.24Q43.63 10.52 43.27 10.76L43.27 10.76L43.27 10.76Q42.77 11.10 42.01 11.53L42.01 11.53L42.01 11.53Q42.23 12.36 42.79 12.81L42.79 12.81L42.79 12.81Q43.34 13.25 44.21 13.25L44.21 13.25L44.21 13.25Q44.95 13.25 45.73 12.82ZM43.67 10.08L43.67 10.08L43.67 10.08Q43.85 9.78 43.85 9.50L43.85 9.50L43.85 9.50Q43.85 9.22 43.79 9.03L43.79 9.03L43.79 9.03Q43.73 8.83 43.61 8.68L43.61 8.68L43.61 8.68Q43.35 8.34 42.92 8.34L42.92 8.34L42.92 8.34Q41.88 8.34 41.88 10.46L41.88 10.46L41.88 10.46Q41.88 10.83 41.95 11.20L41.95 11.20L41.95 11.20Q43.15 10.87 43.67 10.08ZM47.22 8.16L46.33 8.16L47.22 7.46L47.22 6.49L47.22 6.49Q47.58 6.23 47.74 6.09L47.74 6.09L47.74 6.09Q47.90 5.95 48.01 5.89L48.01 5.89L48.01 5.89Q48.12 5.83 48.23 5.76L48.23 5.76L48.23 5.76Q48.53 5.59 48.55 5.56L48.55 5.56L48.55 7.23L50.74 7.23L50.74 7.23Q50.65 7.23 50.29 7.55L50.29 7.55L50.29 7.55Q49.59 8.16 49.41 8.16L49.41 8.16L48.55 8.16L48.55 11.82L48.55 11.82Q48.55 13.08 49.27 13.28L49.27 13.28L49.27 13.28Q49.49 13.33 49.68 13.33L49.68 13.33L49.68 13.33Q50.00 13.33 50.22 13.24L50.22 13.24L50.22 13.24Q50.44 13.15 50.58 13.07L50.58 13.07L50.58 13.07Q50.16 13.71 49.41 14.04L49.41 14.04L49.41 14.04Q49.02 14.21 48.57 14.21L48.57 14.21L48.57 14.21Q48.13 14.21 47.88 14.05L47.88 14.05L47.88 14.05Q47.63 13.90 47.48 13.64L47.48 13.64L47.48 13.64Q47.22 13.18 47.22 12.41L47.22 12.41L47.22 8.16Z"></path></g><defs data-v-423bf9ae=""><linearGradient data-v-423bf9ae="" gradientTransform="rotate(25)" id="43272b1c-1b3f-4279-bb1a-46ce48762d11" x1="0%" y1="0%" x2="100%" y2="0%"><stop data-v-423bf9ae="" offset="0%" style="stop-color: rgb(30, 11, 54); stop-opacity: 1;"></stop><stop data-v-423bf9ae="" offset="100%" style="stop-color: rgb(202, 55, 130); stop-opacity: 1;"></stop></linearGradient></defs><g data-v-423bf9ae="" id="b2cb8992-6374-469e-a334-e8fc10540e38" transform="matrix(3.5999999046325684,0,0,3.5999999046325684,0.0000011920928955078125,0.0000011920928955078125)" stroke="none" fill="url(#43272b1c-1b3f-4279-bb1a-46ce48762d11)"><path d="M12.5 0A12.5 12.5 0 0 0 0 12.5 12.5 12.5 0 0 0 12.5 25 12.5 12.5 0 0 0 25 12.5 12.5 12.5 0 0 0 12.5 0zm.508 5.793l3.853 3.853-.707.708-2.146-2.147v9.291c0 1.375-1.125 2.5-2.5 2.5a2.508 2.508 0 0 1-2.5-2.5c0-1.375 1.125-2.5 2.5-2.5.564 0 1.08.197 1.5.516V5.793zm-1.5 10.203c-.835 0-1.5.666-1.5 1.5s.665 1.5 1.5 1.5c.834 0 1.5-.666 1.5-1.5a1.493 1.493 0 0 0-1.5-1.498v-.002z"></path></g><!----></svg>
