<svg data-v-423bf9ae="" xmlns="http://www.w3.org/2000/svg" viewBox="0 0 90 90" class="iconLeft"><!----><!----><!---->
    <defs data-v-423bf9ae="">
        <linearGradient data-v-423bf9ae="" gradientTransform="rotate(25)" id="d31e2f9b-47b9-4cfc-a65b-e663699e3e45"
                        x1="0%" y1="0%" x2="100%" y2="0%">
            <stop data-v-423bf9ae="" offset="0%" style="stop-color: rgb(30, 11, 54); stop-opacity: 1;"></stop>
            <stop data-v-423bf9ae="" offset="100%" style="stop-color: rgb(202, 55, 130); stop-opacity: 1;"></stop>
        </linearGradient>
    </defs>
    <g data-v-423bf9ae="" id="f3524eed-e83f-4474-a640-65d00840f838"
       transform="matrix(3.5999999046325684,0,0,3.5999999046325684,0.0000011920928955078125,0.0000011920928955078125)"
       stroke="none" fill="url(#d31e2f9b-47b9-4cfc-a65b-e663699e3e45)">
        <path
            d="M12.5 0A12.5 12.5 0 0 0 0 12.5 12.5 12.5 0 0 0 12.5 25 12.5 12.5 0 0 0 25 12.5 12.5 12.5 0 0 0 12.5 0zm.508 5.793l3.853 3.853-.707.708-2.146-2.147v9.291c0 1.375-1.125 2.5-2.5 2.5a2.508 2.508 0 0 1-2.5-2.5c0-1.375 1.125-2.5 2.5-2.5.564 0 1.08.197 1.5.516V5.793zm-1.5 10.203c-.835 0-1.5.666-1.5 1.5s.665 1.5 1.5 1.5c.834 0 1.5-.666 1.5-1.5a1.493 1.493 0 0 0-1.5-1.498v-.002z"></path>
    </g><!---->
</svg>
